<svg width="72" height="34" viewBox="0 0 72 34" fill="none" xmlns="http://www.w3.org/2000/svg">
<g clip-path="url(#clip0_2001_4350)">
<path d="M34.9514 12.9924C34.4047 16.0388 33.9491 18.929 33.116 21.6629C31.3456 27.5058 27.9089 31.2239 22.7931 32.6143C21.1138 33.0674 19.4215 33.2236 17.7032 33.2236C12.0406 33.2236 6.37794 33.2236 0.71531 33.2392C0.181591 33.2392 -0.0136719 33.1455 -0.0136719 32.4112C0.0123632 26.2091 0.0123632 20.0226 -0.0136719 13.8204C-0.0136719 13.2268 0.103486 13.0393 0.624188 13.0393C2.99338 13.0706 5.34955 13.0706 7.71875 13.0393C8.23945 13.0393 8.40868 13.1643 8.40868 13.8361C8.36962 17.273 8.40868 20.71 8.38264 24.1469C8.38264 24.7562 8.4998 24.9437 9.03352 24.928C12.0276 24.8968 15.0216 24.9437 18.0156 24.8968C20.3848 24.8656 22.5978 24.2407 24.3812 22.1785C25.3835 21.038 25.7871 19.5539 26.1646 18.0229C27.2451 13.5705 28.3255 9.10244 29.432 4.65003C30.3042 1.18183 32.9598 -0.521025 35.7715 0.556928C37.0863 1.05685 37.9715 2.18167 38.6094 3.57207C41.4862 9.75858 44.5454 15.8201 47.1879 22.1629C47.227 22.2566 47.266 22.3347 47.3571 22.5066C47.6045 21.8973 47.8128 21.3505 48.0471 20.8037C50.6246 14.9453 53.3973 9.2118 56.131 3.46271C57.667 0.244478 60.6871 -0.661628 63.1865 1.19745C64.2539 1.9942 64.8788 3.18151 65.2172 4.58753C66.9616 11.8051 68.6799 19.0071 70.4112 26.2247C70.9189 28.3337 71.4136 30.4428 71.9343 32.5362C72.0514 33.0205 72.0775 33.2392 71.5307 33.2392C69.1225 33.1923 66.7142 33.208 64.306 33.2392C63.8894 33.2392 63.7462 33.0517 63.6551 32.6299C62.3794 26.5997 60.8694 20.6475 59.6848 14.6016C59.5936 14.1329 59.5155 13.6642 59.3984 13.0237C59.1771 13.5236 59.0209 13.8673 58.8777 14.2266C56.6907 19.7101 54.2434 25.0218 51.8742 30.3803C50.4293 33.6454 48.3204 34.2703 45.1962 33.3954C44.0897 33.083 43.3347 32.0675 42.814 30.9115C41.33 27.6776 39.8721 24.4125 38.4401 21.1318C37.3206 18.5384 36.11 16.0076 35.1337 13.3205C35.0816 13.258 35.0556 13.1955 34.9514 12.9924Z" fill="#eb671b"/>
<path d="M24.1476 11.8056C22.0778 9.71216 19.6825 9.16537 17.1051 9.181C11.4685 9.22786 5.83188 9.19662 0.078125 9.19662C0.559774 8.43112 0.989353 7.74373 1.41893 7.05634C2.62956 5.13477 3.85321 3.2132 5.05082 1.27601C5.24609 0.963559 5.44135 0.791711 5.79282 0.807334C10.5182 0.869824 15.2436 0.682354 19.9689 0.932314C22.0387 1.04167 24.0434 1.63533 25.983 2.57268C26.3605 2.76015 26.3345 2.94762 26.2434 3.32256C25.5404 6.11899 24.8635 8.89979 24.1476 11.8056Z" fill="#AFB0B6"/>
</g>
<defs>
<clipPath id="clip0_2001_4350">
<rect width="72" height="33.5103" fill="white" transform="translate(0 0.244873)"/>
</clipPath>
</defs>
</svg>
