<svg width="20" height="20" viewBox="0 0 20 20" fill="none" xmlns="http://www.w3.org/2000/svg">
<path d="M19.5289 8.87L18.0089 7.35001C17.7489 7.09 17.5389 6.58001 17.5389 6.22001V4.06C17.5389 3.18 16.8189 2.46 15.9389 2.46H13.7889C13.4289 2.46 12.9189 2.25 12.6589 1.99L11.1389 0.470005C10.5189 -0.149995 9.49891 -0.149995 8.87891 0.470005L7.33891 1.99C7.08891 2.25 6.57891 2.46 6.20891 2.46H4.05891C3.17891 2.46 2.45891 3.18 2.45891 4.06V6.21C2.45891 6.57 2.24891 7.08 1.98891 7.34L0.468906 8.86C-0.151094 9.48 -0.151094 10.5 0.468906 11.12L1.98891 12.64C2.24891 12.9 2.45891 13.41 2.45891 13.77V15.92C2.45891 16.8 3.17891 17.52 4.05891 17.52H6.20891C6.56891 17.52 7.07891 17.73 7.33891 17.99L8.85891 19.51C9.47891 20.13 10.4989 20.13 11.1189 19.51L12.6389 17.99C12.8989 17.73 13.4089 17.52 13.7689 17.52H15.9189C16.7989 17.52 17.5189 16.8 17.5189 15.92V13.77C17.5189 13.41 17.7289 12.9 17.9889 12.64L19.5089 11.12C20.1589 10.51 20.1589 9.49 19.5289 8.87ZM5.99891 7C5.99891 6.45 6.44891 6 6.99891 6C7.54891 6 7.99891 6.45 7.99891 7C7.99891 7.55 7.55891 8 6.99891 8C6.44891 8 5.99891 7.55 5.99891 7ZM7.52891 13.53C7.37891 13.68 7.18891 13.75 6.99891 13.75C6.80891 13.75 6.61891 13.68 6.46891 13.53C6.17891 13.24 6.17891 12.76 6.46891 12.47L12.4689 6.47001C12.7589 6.18001 13.2389 6.18001 13.5289 6.47001C13.8189 6.76 13.8189 7.24 13.5289 7.53L7.52891 13.53ZM12.9989 14C12.4389 14 11.9889 13.55 11.9889 13C11.9889 12.45 12.4389 12 12.9889 12C13.5389 12 13.9889 12.45 13.9889 13C13.9889 13.55 13.5489 14 12.9989 14Z" fill="#F45E0C"/>
</svg>
