<svg width="1085" height="2453" viewBox="0 0 1085 2453" fill="none" xmlns="http://www.w3.org/2000/svg">
<path d="M834 66.7636C789.104 36.4148 653.663 -22.7961 536.215 11.2354C398.097 51.2557 379.485 137.299 183.084 152.307C5.46983 165.879 -38.9711 362.12 35.6606 440.954C92.9647 501.485 114 500 140.473 532" stroke="#E88917" stroke-width="2" stroke-dasharray="8 8"/>
<path d="M146 536C219 594 847.141 563.856 883.134 693.454C919.127 823.052 704.168 883.752 594.689 925.715C406.725 964.262 61.1909 1064.49 90.7852 1311.19C120.38 1557.89 610.019 1648.85 851.14 1663.48C953.12 1682.51 1102.59 1793.76 1082.1 2048.47C1065.04 2260.38 996.779 2225.27 693.67 2310.98C670.341 2322.7 546.198 2359.49 574.193 2452" stroke="#E88917" stroke-width="2" stroke-dasharray="8 8"/>
</svg>
